<?xml version="1.0" encoding="utf-8"?>
<!-- Generator: Adobe Illustrator 16.0.0, SVG Export Plug-In . SVG Version: 6.00 Build 0)  -->
<!DOCTYPE svg PUBLIC "-//W3C//DTD SVG 1.1//EN" "http://www.w3.org/Graphics/SVG/1.1/DTD/svg11.dtd">
<svg version="1.1" id="Layer_1" xmlns="http://www.w3.org/2000/svg" xmlns:xlink="http://www.w3.org/1999/xlink" x="0px" y="0px"
	 width="100px" height="100px" viewBox="0 0 100 100" enable-background="new 0 0 100 100" xml:space="preserve">
<g>
	<g>
		<text transform="matrix(1 0 0 1 21.6758 65.4199)" fill="#772016" font-family="'ArialMT'" font-size="10.1931">Account Info</text>
	</g>
	<g>
		<circle fill="#772016" cx="44.372" cy="38.675" r="3.465"/>
		<path fill="#772016" d="M49.505,48.349H39.361c0,0-0.379-3.207,3.08-5.713c0,0,1.73,1.082,4.02,0
			C46.461,42.636,49.686,44.636,49.505,48.349z"/>
	</g>
	<path fill="#772016" d="M63.418,31.271H37.305c-0.982,0-1.779,0.797-1.779,1.781v16.311c0,0.982,0.797,1.78,1.779,1.78h26.113
		c0.982,0,1.779-0.797,1.779-1.78V33.052C65.197,32.068,64.4,31.271,63.418,31.271z M50.48,47.96H38.354V34.542H50.48V47.96z
		 M62.527,46.167H52.201v-1.818h10.326V46.167z M62.527,42.132H52.201v-1.818h10.326V42.132z M62.527,38.152H52.201v-1.818h10.326
		V38.152z"/>
</g>
</svg>
