<?xml version="1.0" encoding="utf-8"?>
<!-- Generator: Adobe Illustrator 16.0.0, SVG Export Plug-In . SVG Version: 6.00 Build 0)  -->
<!DOCTYPE svg PUBLIC "-//W3C//DTD SVG 1.1//EN" "http://www.w3.org/Graphics/SVG/1.1/DTD/svg11.dtd">
<svg version="1.1" id="Layer_1" xmlns="http://www.w3.org/2000/svg" xmlns:xlink="http://www.w3.org/1999/xlink" x="0px" y="0px"
	 width="100px" height="100px" viewBox="0 0 100 100" enable-background="new 0 0 100 100" xml:space="preserve">
<g>
	<g>
		<g>
			<g>
				<text transform="matrix(1 0 0 1 36.3989 65.6602)" fill="#772016" font-family="'ArialMT'" font-size="10.1931">Home</text>
			</g>
		</g>
	</g>
	<path fill="#772016" d="M63.543,45.115c-0.11,0.265-0.371,0.437-0.658,0.437h-2.311c-0.193,0-0.381-0.079-0.515-0.221
		l-9.859-10.295l-9.843,10.295c-0.134,0.142-0.321,0.221-0.517,0.221h-2.324c-0.287,0-0.546-0.172-0.658-0.437
		c-0.112-0.263-0.056-0.568,0.143-0.774l12.566-13.042c0.177-0.175,0.398-0.268,0.633-0.268c0.236,0,0.458,0.093,0.625,0.259
		l12.576,13.051C63.601,44.547,63.655,44.853,63.543,45.115z M41.024,46.318v7.824c0,0.71,0.483,1.284,1.08,1.284h5.127v-8.487
		c0-0.716,0.58-1.298,1.296-1.298h3.349c0.715,0,1.296,0.582,1.296,1.298v8.487H58.3c0.597,0,1.079-0.574,1.079-1.284v-7.795
		l-9.178-9.615L41.024,46.318z"/>
</g>
</svg>
