<?xml version="1.0" encoding="utf-8"?>
<!-- Generator: Adobe Illustrator 16.0.0, SVG Export Plug-In . SVG Version: 6.00 Build 0)  -->
<!DOCTYPE svg PUBLIC "-//W3C//DTD SVG 1.1//EN" "http://www.w3.org/Graphics/SVG/1.1/DTD/svg11.dtd">
<svg version="1.1" id="Layer_1" xmlns="http://www.w3.org/2000/svg" xmlns:xlink="http://www.w3.org/1999/xlink" x="0px" y="0px"
	 width="100px" height="100px" viewBox="0 0 100 100" enable-background="new 0 0 100 100" xml:space="preserve">
<g>
	<g>
		<path fill="#772016" d="M50.001,42.936c-0.787,0-1.426-0.639-1.426-1.426v-9.547c0-0.787,0.639-1.424,1.426-1.424
			s1.424,0.637,1.424,1.424v9.547C51.426,42.297,50.789,42.936,50.001,42.936z"/>
	</g>
	<g>
		<path fill="#772016" d="M50.001,53.738c-6.139,0-11.135-4.994-11.135-11.133c0-3.25,1.415-6.328,3.881-8.447
			c0.598-0.514,1.496-0.445,2.01,0.15c0.514,0.598,0.444,1.498-0.152,2.01c-1.835,1.578-2.889,3.869-2.889,6.287
			c0,4.566,3.717,8.284,8.285,8.284c4.567,0,8.284-3.718,8.284-8.284c0-2.418-1.053-4.709-2.889-6.287
			c-0.597-0.512-0.664-1.412-0.15-2.008c0.512-0.598,1.412-0.666,2.01-0.152c2.465,2.119,3.879,5.197,3.879,8.447
			C61.135,48.744,56.141,53.738,50.001,53.738z"/>
	</g>
	<g>
		<text transform="matrix(1 0 0 1 34.4116 66.1504)" fill="#772016" font-family="'ArialMT'" font-size="10.1931">Logout</text>
	</g>
</g>
</svg>
