<?xml version="1.0" encoding="utf-8"?>
<!-- Generator: Adobe Illustrator 16.0.0, SVG Export Plug-In . SVG Version: 6.00 Build 0)  -->
<!DOCTYPE svg PUBLIC "-//W3C//DTD SVG 1.1//EN" "http://www.w3.org/Graphics/SVG/1.1/DTD/svg11.dtd">
<svg version="1.1" id="Layer_1" xmlns="http://www.w3.org/2000/svg" xmlns:xlink="http://www.w3.org/1999/xlink" x="0px" y="0px"
	 width="100px" height="100px" viewBox="0 0 100 100" enable-background="new 0 0 100 100" xml:space="preserve">
<g>
	<g>
		<g>
			<text transform="matrix(1 0 0 1 40.3896 70.1025)" fill="#772016" font-family="'ArialMT'" font-size="10.1931">Print</text>
		</g>
	</g>
	<path fill="#772016" d="M62.274,35.062h-1.261c-0.239-1.411-1.462-2.492-2.94-2.492h-0.78v-2.99c0-1.649-1.341-2.991-2.99-2.991
		h-8.604c-1.65,0-2.991,1.342-2.991,2.991v2.99h-0.78c-1.479,0-2.701,1.081-2.94,2.492h-1.261c-2.064,0-3.738,1.674-3.738,3.738
		v11.466c0,2.065,1.674,3.738,3.738,3.738h1.21v1.483c0,1.649,1.342,2.99,2.991,2.99h16.146c1.649,0,2.991-1.341,2.991-2.99v-1.483
		h1.21c2.065,0,3.738-1.673,3.738-3.738V38.8C66.013,36.735,64.34,35.062,62.274,35.062z M44.202,29.579
		c0-0.824,0.671-1.496,1.496-1.496h8.604c0.824,0,1.495,0.672,1.495,1.496v5.979c0,0.824-0.671,1.495-1.495,1.495h-8.604
		c-0.825,0-1.496-0.671-1.496-1.495V29.579z M40.431,35.561c0-0.824,0.671-1.495,1.496-1.495h0.78v1.492
		c0,1.649,1.341,2.99,2.991,2.99h8.604c1.649,0,2.99-1.341,2.99-2.99v-1.492h0.78c0.825,0,1.496,0.671,1.496,1.495v4.692
		c0,0.824-0.671,1.495-1.496,1.495H41.927c-0.825,0-1.496-0.671-1.496-1.495V35.561z M59.569,55.487
		c0,0.824-0.671,1.495-1.496,1.495H41.927c-0.825,0-1.496-0.671-1.496-1.495v-4.692c0-0.824,0.671-1.495,1.496-1.495h16.146
		c0.825,0,1.496,0.671,1.496,1.495V55.487z"/>
</g>
</svg>
