<?xml version="1.0" encoding="utf-8"?>
<!-- Generator: Adobe Illustrator 16.0.0, SVG Export Plug-In . SVG Version: 6.00 Build 0)  -->
<!DOCTYPE svg PUBLIC "-//W3C//DTD SVG 1.1//EN" "http://www.w3.org/Graphics/SVG/1.1/DTD/svg11.dtd">
<svg version="1.1" id="Layer_1" xmlns="http://www.w3.org/2000/svg" xmlns:xlink="http://www.w3.org/1999/xlink" x="0px" y="0px"
	 width="100px" height="100px" viewBox="0 0 100 100" enable-background="new 0 0 100 100" xml:space="preserve">
<g>
	<g>
		<text transform="matrix(1 0 0 1 30.7363 71.291)" fill="#772016" font-family="'ArialMT'" font-size="10.1931">Redeem</text>
	</g>
	<g>
		<g>
			<path fill="#772016" d="M55.692,33.697c3.16-0.883,6.443-3.162,4.938-6.315c-2.041-4.281-8.381-0.697-10.281,2.045
				c-0.146,0.212-0.274,0.42-0.382,0.623c-0.108-0.203-0.235-0.411-0.383-0.623c-1.9-2.742-8.238-6.326-10.282-2.045
				c-1.505,3.153,1.777,5.433,4.938,6.315H55.692z M51.012,30.273c1.564-1.946,6.518-4.675,7.853-1.877s-3.902,4.933-6.399,4.924
				c-1.138-0.004-1.843-0.33-2.1-0.868C50.108,31.912,50.3,31.16,51.012,30.273z M41.068,28.395
				c1.335-2.797,6.288-0.068,7.853,1.878c0.713,0.887,0.904,1.639,0.646,2.179c-0.257,0.538-0.962,0.864-2.1,0.868
				C44.971,33.329,39.732,31.194,41.068,28.395z"/>
		</g>
		<g>
			<path fill="#772016" d="M61.588,39.969h-9.841V58.73h9.841c1.22,0,2.207-0.987,2.207-2.207V42.176
				C63.795,40.958,62.808,39.969,61.588,39.969z"/>
			<path fill="#772016" d="M48.068,39.969h-9.84c-1.22,0-2.209,0.988-2.209,2.207v14.347c0,1.22,0.989,2.207,2.209,2.207h9.84
				V39.969z"/>
		</g>
		<g>
			<path fill="#772016" d="M48.068,34.417H35.836c-1.015,0-1.839,0.824-1.839,1.84c0,1.017,0.824,1.84,1.839,1.84h12.232V34.417z"/>
			<path fill="#772016" d="M64.163,34.417H51.747v3.68h12.416c1.016,0,1.84-0.823,1.84-1.84
				C66.003,35.242,65.179,34.417,64.163,34.417z"/>
		</g>
	</g>
</g>
</svg>
