<?xml version="1.0" encoding="utf-8"?>
<!-- Generator: Adobe Illustrator 16.0.0, SVG Export Plug-In . SVG Version: 6.00 Build 0)  -->
<!DOCTYPE svg PUBLIC "-//W3C//DTD SVG 1.1//EN" "http://www.w3.org/Graphics/SVG/1.1/DTD/svg11.dtd">
<svg version="1.1" id="Layer_1" xmlns="http://www.w3.org/2000/svg" xmlns:xlink="http://www.w3.org/1999/xlink" x="0px" y="0px"
	 width="100px" height="100px" viewBox="0 0 100 100" enable-background="new 0 0 100 100" xml:space="preserve">
<g>
	<g>
		<g>
			<text transform="matrix(1 0 0 1 33.8521 63.6484)" fill="#772016" font-family="'ArialMT'" font-size="10.1931">Search</text>
		</g>
	</g>
	<path fill="#772016" d="M58.338,49.164l-4.127-3.642c0.66-1.201,1.035-2.579,1.035-4.044c0-4.651-3.783-8.437-8.436-8.437
		c-4.653,0-8.438,3.785-8.438,8.437c0,4.652,3.784,8.438,8.438,8.438c1.56,0,3.017-0.433,4.272-1.174l4.289,3.788
		c0.426,0.376,0.955,0.561,1.482,0.561c0.621,0,1.24-0.257,1.684-0.761C59.355,51.401,59.266,49.983,58.338,49.164z M40.616,41.479
		c0-3.416,2.778-6.193,6.194-6.193c3.415,0,6.194,2.777,6.194,6.193s-2.779,6.195-6.194,6.195
		C43.394,47.674,40.616,44.895,40.616,41.479z"/>
</g>
</svg>
