<?xml version="1.0" encoding="utf-8"?>
<!-- Generator: Adobe Illustrator 16.0.0, SVG Export Plug-In . SVG Version: 6.00 Build 0)  -->
<!DOCTYPE svg PUBLIC "-//W3C//DTD SVG 1.1//EN" "http://www.w3.org/Graphics/SVG/1.1/DTD/svg11.dtd">
<svg version="1.1" id="Layer_1" xmlns="http://www.w3.org/2000/svg" xmlns:xlink="http://www.w3.org/1999/xlink" x="0px" y="0px"
	 width="100px" height="100px" viewBox="0 0 100 100" enable-background="new 0 0 100 100" xml:space="preserve">
<g>
	<g>
		<path fill="#772016" d="M39.152,36.662c0,0.324-0.265,0.588-0.591,0.588h-2.452c-0.327,0-0.591-0.264-0.591-0.588v-2.455
			c0-0.324,0.264-0.588,0.591-0.588h2.452c0.326,0,0.591,0.264,0.591,0.588V36.662z"/>
		<path fill="#772016" d="M59.751,36.662c0,0.324-0.263,0.588-0.59,0.588H42.896c-0.326,0-0.59-0.264-0.59-0.588v-2.455
			c0-0.324,0.264-0.588,0.59-0.588h16.266c0.326,0,0.59,0.264,0.59,0.588L59.751,36.662L59.751,36.662z"/>
		<path fill="#772016" d="M39.152,43.104c0,0.328-0.265,0.592-0.591,0.592h-2.452c-0.327,0-0.591-0.264-0.591-0.592v-2.451
			c0-0.326,0.264-0.592,0.591-0.592h2.452c0.326,0,0.591,0.266,0.591,0.592V43.104z"/>
		<path fill="#772016" d="M59.751,43.104c0,0.328-0.263,0.592-0.59,0.592H42.896c-0.326,0-0.59-0.264-0.59-0.592v-2.451
			c0-0.326,0.264-0.592,0.59-0.592h16.266c0.326,0,0.59,0.266,0.59,0.592L59.751,43.104L59.751,43.104z"/>
		<path fill="#772016" d="M39.152,50.371c0,0.326-0.265,0.59-0.591,0.59h-2.452c-0.327,0-0.591-0.264-0.591-0.59v-2.453
			c0-0.324,0.264-0.592,0.591-0.592h2.452c0.326,0,0.591,0.268,0.591,0.592V50.371z"/>
		<path fill="#772016" d="M59.751,50.371c0,0.326-0.263,0.59-0.59,0.59H42.896c-0.326,0-0.59-0.264-0.59-0.59v-2.453
			c0-0.324,0.264-0.592,0.59-0.592h16.266c0.326,0,0.59,0.268,0.59,0.592L59.751,50.371L59.751,50.371z"/>
		<path fill="#772016" d="M60.909,24.041H33.673c-2.439,0-4.426,1.984-4.426,4.426v37.074c0,2.441,1.986,4.424,4.426,4.424h8.633
			c0.814,0,1.475-0.658,1.475-1.475c0-0.814-0.66-1.475-1.475-1.475h-8.633c-0.814,0-1.475-0.662-1.475-1.476V28.467
			c0-0.812,0.66-1.477,1.475-1.477h29.315c0.812,0,1.476,0.664,1.476,1.477v23.893c0,0.816,0.66,1.478,1.476,1.478
			s1.477-0.659,1.477-1.478V30.042L60.909,24.041z"/>
		<polygon fill="#772016" points="66.863,31.65 59.877,31.65 59.877,24.664 62.83,26.183 66.529,29.363 		"/>
		<g>
			<g>
				<path fill="#772016" d="M61.9,74.207c0,0.967-0.783,1.752-1.752,1.752l0,0c-0.969,0-1.752-0.785-1.752-1.752V56.504
					c0-0.969,0.783-1.752,1.752-1.752l0,0c0.969,0,1.752,0.783,1.752,1.752V74.207z"/>
			</g>
			<g>
				<path fill="#772016" d="M51.298,67.105c-0.969,0-1.753-0.783-1.753-1.752l0,0c0-0.969,0.784-1.752,1.753-1.752h17.701
					c0.969,0,1.754,0.783,1.754,1.752l0,0c0,0.969-0.785,1.752-1.754,1.752H51.298z"/>
			</g>
		</g>
	</g>
</g>
</svg>
