<?xml version="1.0" encoding="utf-8"?>
<!-- Generator: Adobe Illustrator 16.0.0, SVG Export Plug-In . SVG Version: 6.00 Build 0)  -->
<!DOCTYPE svg PUBLIC "-//W3C//DTD SVG 1.1//EN" "http://www.w3.org/Graphics/SVG/1.1/DTD/svg11.dtd">
<svg version="1.1" id="Layer_1" xmlns="http://www.w3.org/2000/svg" xmlns:xlink="http://www.w3.org/1999/xlink" x="0px" y="0px"
	 width="100px" height="100px" viewBox="0 0 100 100" enable-background="new 0 0 100 100" xml:space="preserve">
<g>
	<g>
		<path fill="#772016" d="M38.888,39.52c0,0.324-0.265,0.588-0.591,0.588h-2.452c-0.327,0-0.591-0.264-0.591-0.588v-2.455
			c0-0.324,0.264-0.588,0.591-0.588h2.452c0.326,0,0.591,0.264,0.591,0.588V39.52z"/>
		<path fill="#772016" d="M59.486,39.52c0,0.324-0.262,0.588-0.59,0.588H42.631c-0.326,0-0.59-0.264-0.59-0.588v-2.455
			c0-0.324,0.264-0.588,0.59-0.588h16.266c0.328,0,0.59,0.264,0.59,0.588V39.52z"/>
		<path fill="#772016" d="M38.888,45.961c0,0.328-0.265,0.592-0.591,0.592h-2.452c-0.327,0-0.591-0.264-0.591-0.592V43.51
			c0-0.326,0.264-0.592,0.591-0.592h2.452c0.326,0,0.591,0.266,0.591,0.592V45.961z"/>
		<path fill="#772016" d="M59.486,45.961c0,0.328-0.262,0.592-0.59,0.592H42.631c-0.326,0-0.59-0.264-0.59-0.592V43.51
			c0-0.326,0.264-0.592,0.59-0.592h16.266c0.328,0,0.59,0.266,0.59,0.592V45.961z"/>
		<path fill="#772016" d="M38.888,53.229c0,0.326-0.265,0.59-0.591,0.59h-2.452c-0.327,0-0.591-0.264-0.591-0.59v-2.453
			c0-0.323,0.264-0.591,0.591-0.591h2.452c0.326,0,0.591,0.268,0.591,0.591V53.229z"/>
		<path fill="#772016" d="M59.486,53.229c0,0.326-0.262,0.59-0.59,0.59H42.631c-0.326,0-0.59-0.264-0.59-0.59v-2.453
			c0-0.323,0.264-0.591,0.59-0.591h16.266c0.328,0,0.59,0.268,0.59,0.591V53.229z"/>
		<g>
			<path fill="#772016" d="M70.521,64.672c-2.328-3.166-6.955-5.131-12.076-5.131s-9.75,1.965-12.078,5.131
				c-0.659,0.893-0.659,2.404,0,3.299c2.329,3.164,6.957,5.131,12.078,5.131c5.119,0,9.748-1.967,12.076-5.131
				C71.182,67.076,71.182,65.566,70.521,64.672z M58.445,71.662c-4.672,0-8.855-1.74-10.919-4.545c-0.29-0.395-0.29-1.199,0-1.594
				c2.064-2.803,6.25-4.545,10.919-4.545c4.668,0,8.854,1.742,10.918,4.545c0.291,0.395,0.291,1.199,0,1.596
				C67.299,69.922,63.115,71.662,58.445,71.662z"/>
			<path fill="#772016" d="M58.445,61.172c-2.838,0-5.148,2.309-5.148,5.148c0,2.838,2.311,5.148,5.148,5.148
				c2.837,0,5.146-2.312,5.146-5.148C63.592,63.48,61.283,61.172,58.445,61.172z M58.445,70.049c-2.057,0-3.729-1.672-3.729-3.729
				c0-2.055,1.673-3.727,3.729-3.727c2.055,0,3.727,1.672,3.727,3.727C62.172,68.377,60.5,70.049,58.445,70.049z"/>
			<path fill="#772016" d="M61.049,65.166l-2.604,1.154l1.154-2.602c-0.354-0.158-0.744-0.248-1.154-0.248
				c-1.572,0-2.85,1.278-2.85,2.85c0,1.572,1.276,2.852,2.85,2.852c1.57,0,2.85-1.279,2.85-2.852
				C61.295,65.91,61.205,65.52,61.049,65.166z"/>
		</g>
		<path fill="#772016" d="M60.645,26.899H33.409c-2.439,0-4.426,1.984-4.426,4.426v37.073c0,2.441,1.986,4.424,4.426,4.424h8.633
			c0.814,0,1.475-0.657,1.475-1.475c0-0.813-0.66-1.475-1.475-1.475h-8.633c-0.814,0-1.475-0.662-1.475-1.475V31.325
			c0-0.812,0.66-1.477,1.475-1.477h29.315c0.812,0,1.476,0.664,1.476,1.477v23.892c0,0.816,0.659,1.477,1.475,1.477
			c0.816,0,1.478-0.659,1.478-1.477V32.9L60.645,26.899z"/>
		<polygon fill="#772016" points="66.6,34.508 59.613,34.508 59.613,27.522 62.566,29.041 66.266,32.221 		"/>
	</g>
</g>
</svg>
