<?xml version="1.0" encoding="utf-8"?>
<!-- Generator: Adobe Illustrator 16.0.0, SVG Export Plug-In . SVG Version: 6.00 Build 0)  -->
<!DOCTYPE svg PUBLIC "-//W3C//DTD SVG 1.1//EN" "http://www.w3.org/Graphics/SVG/1.1/DTD/svg11.dtd">
<svg version="1.1" id="Layer_1" xmlns="http://www.w3.org/2000/svg" xmlns:xlink="http://www.w3.org/1999/xlink" x="0px" y="0px"
	 width="100px" height="100px" viewBox="0 0 100 100" enable-background="new 0 0 100 100" xml:space="preserve">
<g>
	<g>
		<g>
			<g>
				<path fill="#772016" d="M45.302,75.256H35.288c-2.356,0-4.271-1.916-4.271-4.27V35.22c0-2.355,1.914-4.271,4.271-4.271H63.57
					c2.354,0,4.271,1.916,4.271,4.271v24.215c0,0.785-0.637,1.424-1.424,1.424c-0.785,0-1.424-0.639-1.424-1.424V35.22
					c0-0.787-0.64-1.426-1.423-1.426H35.288c-0.785,0-1.424,0.639-1.424,1.426v35.766c0,0.785,0.639,1.425,1.424,1.425h10.015
					c0.785,0,1.423,0.635,1.423,1.424C46.725,74.617,46.087,75.256,45.302,75.256z"/>
			</g>
			<g>
				<path fill="#772016" d="M40.574,43.122c0,0.316-0.256,0.57-0.57,0.57h-2.366c-0.315,0-0.569-0.254-0.569-0.57v-2.365
					c0-0.314,0.254-0.568,0.569-0.568h2.366c0.314,0,0.57,0.254,0.57,0.568V43.122z"/>
			</g>
			<g>
				<path fill="#772016" d="M60.447,43.122c0,0.316-0.254,0.57-0.57,0.57H44.184c-0.313,0-0.569-0.254-0.569-0.57v-2.365
					c0-0.314,0.256-0.568,0.569-0.568h15.693c0.316,0,0.57,0.254,0.57,0.568V43.122z"/>
			</g>
			<g>
				<path fill="#772016" d="M40.574,49.341c0,0.314-0.256,0.57-0.57,0.57h-2.366c-0.315,0-0.569-0.256-0.569-0.57v-2.367
					c0-0.314,0.254-0.568,0.569-0.568h2.366c0.314,0,0.57,0.254,0.57,0.568V49.341z"/>
			</g>
			<g>
				<path fill="#772016" d="M60.447,49.341c0,0.314-0.254,0.57-0.57,0.57H44.184c-0.313,0-0.569-0.256-0.569-0.57v-2.367
					c0-0.314,0.256-0.568,0.569-0.568h15.693c0.316,0,0.57,0.254,0.57,0.568V49.341z"/>
			</g>
			<g>
				<path fill="#772016" d="M40.574,56.352c0,0.313-0.256,0.567-0.57,0.567h-2.366c-0.315,0-0.569-0.254-0.569-0.567v-2.367
					c0-0.314,0.254-0.568,0.569-0.568h2.366c0.314,0,0.57,0.254,0.57,0.568V56.352z"/>
			</g>
			<g>
				<path fill="#772016" d="M60.447,56.352c0,0.313-0.254,0.567-0.57,0.567H44.184c-0.313,0-0.569-0.254-0.569-0.567v-2.367
					c0-0.314,0.256-0.568,0.569-0.568h15.693c0.316,0,0.57,0.254,0.57,0.568V56.352z"/>
			</g>
			<g>
				<path fill="#772016" d="M48.984,22.212c-8.392,0-14.158,6.744-14.158,6.744v1.021v1.254v0.482c0,1.141,0.927,2.068,2.068,2.068
					h24.18c1.143,0,2.068-0.928,2.068-2.068v-0.482v-1.176v-1.1C57.77,22.29,48.984,22.212,48.984,22.212z M48.983,29.897
					c-1.537,0-2.784-1.246-2.784-2.783c0-1.539,1.247-2.785,2.784-2.785c1.539,0,2.787,1.246,2.787,2.785
					C51.77,28.651,50.521,29.897,48.983,29.897z"/>
			</g>
		</g>
		<g>
			<g>
				<g>
					
						<path fill="#772016" stroke="#772016" stroke-width="0.25" stroke-linecap="round" stroke-linejoin="round" stroke-miterlimit="10" d="
						M64.549,73.294c-2.499-0.188-4.729-1.705-5.812-3.957c-1.09-2.255-0.889-4.94,0.52-7.015c0.117-0.172,0.133-0.393,0.044-0.58
						c-0.092-0.188-0.274-0.311-0.481-0.326c-1.434-0.107-2.862,0.16-4.17,0.792c-4.069,1.964-5.783,6.872-3.818,10.944
						c1.359,2.814,4.258,4.636,7.386,4.636l0,0c1.239,0,2.437-0.274,3.558-0.817c1.297-0.625,2.406-1.582,3.213-2.771
						c0.117-0.17,0.136-0.391,0.045-0.577C64.938,73.434,64.757,73.309,64.549,73.294z M61.268,75.924
						c-0.965,0.467-1.99,0.701-3.053,0.701l0,0c-2.683,0-5.173-1.562-6.34-3.979c-1.686-3.494-0.214-7.707,3.277-9.39
						c0.826-0.401,1.705-0.632,2.609-0.688c-1.145,2.262-1.189,4.965-0.074,7.275c1.114,2.309,3.258,3.953,5.738,4.465
						C62.82,74.977,62.087,75.527,61.268,75.924z"/>
				</g>
				<g>
					
						<path fill="#772016" stroke="#772016" stroke-width="0.25" stroke-linecap="round" stroke-linejoin="round" stroke-miterlimit="10" d="
						M68.969,64.439c-0.05-0.151-0.214-0.236-0.365-0.186l-0.834,0.27v-0.877c0-0.16-0.131-0.291-0.291-0.291
						s-0.291,0.131-0.291,0.291v0.877l-0.832-0.27c-0.151-0.05-0.313,0.033-0.367,0.186c-0.049,0.152,0.033,0.316,0.189,0.365
						l0.831,0.271l-0.516,0.71c-0.095,0.13-0.065,0.311,0.063,0.404c0.051,0.037,0.111,0.057,0.172,0.057
						c0.09,0,0.179-0.044,0.235-0.119l0.515-0.71l0.514,0.71c0.059,0.075,0.146,0.119,0.234,0.119c0.061,0,0.121-0.02,0.174-0.057
						c0.129-0.096,0.156-0.274,0.063-0.404l-0.517-0.71l0.832-0.271C68.934,64.757,69.02,64.594,68.969,64.439z"/>
				</g>
				<g>
					
						<path fill="#772016" stroke="#772016" stroke-width="0.25" stroke-linecap="round" stroke-linejoin="round" stroke-miterlimit="10" d="
						M61.684,64.329l0.662,0.214l-0.408,0.564c-0.098,0.127-0.066,0.31,0.062,0.402c0.054,0.04,0.11,0.057,0.17,0.057
						c0.093,0,0.181-0.041,0.235-0.119l0.41-0.563l0.408,0.563c0.057,0.078,0.146,0.119,0.236,0.119
						c0.059,0,0.119-0.017,0.171-0.057c0.129-0.094,0.159-0.275,0.062-0.402l-0.406-0.564l0.66-0.214
						c0.152-0.052,0.236-0.216,0.187-0.366c-0.048-0.154-0.213-0.234-0.364-0.188l-0.66,0.215v-0.696
						c0-0.159-0.133-0.288-0.293-0.288c-0.162,0-0.291,0.129-0.291,0.288v0.696l-0.662-0.215c-0.151-0.047-0.313,0.033-0.365,0.188
						C61.445,64.113,61.529,64.277,61.684,64.329z"/>
				</g>
				<g>
					
						<path fill="#772016" stroke="#772016" stroke-width="0.25" stroke-linecap="round" stroke-linejoin="round" stroke-miterlimit="10" d="
						M65.221,68.62l-0.727,0.235v-0.762c0-0.16-0.133-0.291-0.292-0.291c-0.158,0-0.29,0.131-0.29,0.291v0.762l-0.725-0.235
						c-0.153-0.048-0.315,0.032-0.367,0.187c-0.049,0.151,0.033,0.317,0.188,0.365l0.727,0.237l-0.447,0.616
						c-0.096,0.129-0.066,0.312,0.064,0.404c0.051,0.037,0.11,0.055,0.168,0.055c0.092,0,0.182-0.039,0.237-0.117l0.445-0.617
						l0.448,0.617c0.058,0.078,0.146,0.117,0.236,0.117c0.059,0,0.118-0.018,0.17-0.055c0.131-0.094,0.159-0.275,0.064-0.404
						l-0.449-0.616l0.725-0.237c0.152-0.048,0.238-0.214,0.188-0.365C65.536,68.652,65.371,68.57,65.221,68.62z"/>
				</g>
			</g>
		</g>
	</g>
</g>
</svg>
