<?xml version="1.0" encoding="utf-8"?>
<!-- Generator: Adobe Illustrator 16.0.0, SVG Export Plug-In . SVG Version: 6.00 Build 0)  -->
<!DOCTYPE svg PUBLIC "-//W3C//DTD SVG 1.1//EN" "http://www.w3.org/Graphics/SVG/1.1/DTD/svg11.dtd">
<svg version="1.1" id="Layer_1" xmlns="http://www.w3.org/2000/svg" xmlns:xlink="http://www.w3.org/1999/xlink" x="0px" y="0px"
	 width="100px" height="100px" viewBox="0 0 100 100" enable-background="new 0 0 100 100" xml:space="preserve">
<g>
	<g>
		<g>
			<g>
				<path fill="#772016" d="M43.325,75.25H33.31c-2.356,0-4.271-1.916-4.271-4.27V35.214c0-2.355,1.914-4.271,4.271-4.271h28.282
					c2.355,0,4.27,1.916,4.27,4.271V59.43c0,0.785-0.637,1.424-1.424,1.424c-0.785,0-1.424-0.639-1.424-1.424V35.214
					c0-0.787-0.639-1.426-1.422-1.426H33.31c-0.785,0-1.424,0.639-1.424,1.426V70.98c0,0.785,0.639,1.424,1.424,1.424h10.015
					c0.785,0,1.423,0.635,1.423,1.424C44.748,74.611,44.11,75.25,43.325,75.25z"/>
			</g>
			<g>
				<path fill="#772016" d="M38.596,43.117c0,0.316-0.256,0.57-0.57,0.57H35.66c-0.315,0-0.569-0.254-0.569-0.57v-2.365
					c0-0.314,0.254-0.568,0.569-0.568h2.366c0.314,0,0.57,0.254,0.57,0.568V43.117z"/>
			</g>
			<g>
				<path fill="#772016" d="M58.469,43.117c0,0.316-0.254,0.57-0.57,0.57H42.207c-0.313,0-0.569-0.254-0.569-0.57v-2.365
					c0-0.314,0.256-0.568,0.569-0.568h15.691c0.316,0,0.57,0.254,0.57,0.568V43.117z"/>
			</g>
			<g>
				<path fill="#772016" d="M38.596,49.335c0,0.314-0.256,0.57-0.57,0.57H35.66c-0.315,0-0.569-0.256-0.569-0.57v-2.367
					c0-0.314,0.254-0.568,0.569-0.568h2.366c0.314,0,0.57,0.254,0.57,0.568V49.335z"/>
			</g>
			<g>
				<path fill="#772016" d="M58.469,49.335c0,0.314-0.254,0.57-0.57,0.57H42.207c-0.313,0-0.569-0.256-0.569-0.57v-2.367
					c0-0.314,0.256-0.568,0.569-0.568h15.691c0.316,0,0.57,0.254,0.57,0.568V49.335z"/>
			</g>
			<g>
				<path fill="#772016" d="M38.596,56.346c0,0.314-0.256,0.568-0.57,0.568H35.66c-0.315,0-0.569-0.254-0.569-0.568v-2.367
					c0-0.313,0.254-0.567,0.569-0.567h2.366c0.314,0,0.57,0.254,0.57,0.567V56.346z"/>
			</g>
			<g>
				<path fill="#772016" d="M58.469,56.346c0,0.314-0.254,0.568-0.57,0.568H42.207c-0.313,0-0.569-0.254-0.569-0.568v-2.367
					c0-0.313,0.256-0.567,0.569-0.567h15.691c0.316,0,0.57,0.254,0.57,0.567V56.346z"/>
			</g>
			<g>
				<path fill="#772016" d="M47.006,22.207c-8.392,0-14.158,6.744-14.158,6.744v1.021v1.254v0.482c0,1.141,0.927,2.068,2.068,2.068
					h24.18c1.143,0,2.067-0.928,2.067-2.068v-0.482V30.05v-1.1C55.791,22.285,47.006,22.207,47.006,22.207z M47.005,29.892
					c-1.537,0-2.784-1.246-2.784-2.783c0-1.539,1.247-2.785,2.784-2.785c1.539,0,2.786,1.246,2.786,2.785
					C49.792,28.646,48.544,29.892,47.005,29.892z"/>
			</g>
		</g>
		<g>
			<g opacity="0.25">
				<path fill="#772016" d="M67.848,71.654c0.197-0.465,0.295-0.945,0.295-1.439c0-2.863-3.451-5.191-7.692-5.191
					c-0.638,0-1.25,0.058-1.845,0.156l-0.614-0.221l0.848-1.451c0.19-0.326,0.119-0.553,0.058-0.658
					c-0.117-0.205-0.354-0.305-0.688-0.24l-1.651,0.3l0.008-1.681c0.002-0.281-0.097-0.438-0.178-0.52
					c-0.199-0.203-0.531-0.189-0.818,0.055l-1.281,1.088l-0.832-1.459c-0.189-0.33-0.42-0.379-0.545-0.379
					c-0.111,0-0.396,0.047-0.551,0.475l-0.564,1.582l-1.45-0.848c-0.311-0.182-0.618-0.154-0.79,0.051
					c-0.081,0.099-0.167,0.277-0.113,0.58l0.303,1.652l-1.687-0.01c-0.421,0-0.569,0.225-0.613,0.32
					c-0.045,0.098-0.119,0.354,0.156,0.678l1.088,1.279l-1.462,0.834c-0.367,0.209-0.387,0.479-0.378,0.582
					c0.011,0.106,0.075,0.369,0.474,0.514l1.583,0.564l-0.849,1.448c-0.19,0.328-0.119,0.554-0.058,0.66
					c0.116,0.205,0.355,0.302,0.689,0.239l1.65-0.299l-0.009,1.681c0,0.058,0.007,0.104,0.015,0.151
					c-0.136,0.164-0.256,0.332-0.352,0.508c-1.633,0.171-2.825,1.093-2.825,2.238c0,1.271,1.478,2.269,3.362,2.269
					c0.512,0,1.016-0.076,1.469-0.222c1.115,0.549,2.508,0.849,3.957,0.849c1.906,0,3.672-0.513,4.854-1.392
					c1.01,0.869,2.707,1.394,4.601,1.394c3.112,0,5.553-1.418,5.553-3.229C70.961,73.275,69.764,72.176,67.848,71.654z
					 M52.82,69.588c-1.062-0.357-1.838-1.307-1.94-2.471c-0.067-0.766,0.167-1.514,0.663-2.105c0.496-0.588,1.189-0.951,1.957-1.018
					c0.086-0.008,0.17-0.012,0.254-0.012c1.191,0,2.23,0.756,2.658,1.82C54.473,66.615,53.107,67.988,52.82,69.588z M48.584,70.061
					c-0.02,0.004-0.043,0.006-0.069,0.006c0.007-0.018,0.016-0.039,0.03-0.062l0.978-1.672L49.3,68.154l0.256,0.129l0.062-0.107
					l-0.034-0.117c-0.007-0.021-0.015-0.041-0.023-0.062l-0.097-0.131l-1.952-0.699c-0.028-0.008-0.05-0.021-0.066-0.026
					c0.017-0.013,0.034-0.025,0.062-0.039l1.718-0.979l0.127-0.067l0.03-0.138l-0.276-0.063l0.286,0.008l-0.021-0.154l-1.34-1.58
					c-0.02-0.02-0.034-0.041-0.044-0.057c0.018-0.002,0.042-0.006,0.072-0.006l1.979,0.014l0.164-0.012l0.095-0.111l0.074-0.152
					L50,61.752c-0.005-0.029-0.008-0.053-0.008-0.07c0.018,0.006,0.038,0.016,0.064,0.031l1.709,1.004l0.159,0.061l0.136-0.045
					l0.133-0.098l0.699-1.955c0.01-0.029,0.02-0.049,0.026-0.063c0.013,0.014,0.024,0.032,0.041,0.059l0.979,1.72l0.104,0.133
					l0.129,0.031l0.166,0.002l1.595-1.361c0.021-0.018,0.043-0.031,0.057-0.043c0.004,0.02,0.006,0.041,0.006,0.072l-0.012,1.987
					l-0.014,0.144l0.272,0.186l2.063-0.377c0.021-0.002,0.037-0.006,0.07-0.006c-0.008,0.018-0.018,0.037-0.031,0.061l-1.008,1.715
					l-0.059,0.144l0.039,0.129l0.094,0.147l0.145,0.052c-0.209,0.057-0.41,0.12-0.608,0.188c-0.55-1.365-1.947-2.301-3.5-2.166
					c-0.916,0.078-1.748,0.512-2.341,1.219c-0.592,0.707-0.875,1.603-0.793,2.519c0.124,1.44,1.116,2.601,2.45,2.992
					c-0.002,0.021-0.007,0.039-0.007,0.058c0,0.09,0.009,0.18,0.017,0.27c-0.008,0.029-0.019,0.062-0.023,0.093
					c-0.732,0.263-1.355,0.606-1.852,1.019l0.013-1.59l-0.019-0.148l-0.097-0.086l-0.153-0.084L48.584,70.061z M50.775,70.547
					l-0.264-0.262l0.163-0.031L50.775,70.547z M65.408,76.658c-1.785,0-3.443-0.559-4.125-1.387c-0.1-0.121-0.248-0.195-0.404-0.205
					c-0.012,0-0.021,0-0.035,0c-0.145,0-0.283,0.055-0.389,0.154c-0.934,0.885-2.658,1.436-4.5,1.436
					c-1.363,0-2.658-0.295-3.645-0.828c-0.146-0.082-0.322-0.09-0.479-0.029c-0.388,0.152-0.836,0.232-1.302,0.232
					c-1.275,0-2.229-0.6-2.229-1.135c0-0.5,0.854-1.086,2.083-1.131c0.228-0.009,0.429-0.15,0.511-0.363
					c0.306-0.799,1.31-1.508,2.687-1.9c0.293-0.084,0.467-0.385,0.396-0.684c-0.058-0.225-0.082-0.42-0.082-0.604
					c0-2.235,2.938-4.058,6.555-4.058c3.617,0,6.559,1.82,6.559,4.058c0,0.521-0.162,1.029-0.484,1.515
					c-0.104,0.16-0.125,0.36-0.049,0.537c0.076,0.176,0.232,0.301,0.42,0.338c1.699,0.303,2.933,1.129,2.933,1.959
					C69.826,75.555,68.012,76.658,65.408,76.658z"/>
			</g>
			<g>
				
					<path fill="#772016" stroke="#772016" stroke-width="0.25" stroke-linecap="round" stroke-linejoin="round" stroke-miterlimit="10" d="
					M67.848,71.654c0.197-0.465,0.295-0.945,0.295-1.439c0-2.863-3.451-5.191-7.692-5.191c-0.638,0-1.25,0.058-1.845,0.156
					l-0.614-0.221l0.848-1.451c0.19-0.326,0.119-0.553,0.058-0.658c-0.117-0.205-0.354-0.305-0.688-0.24l-1.651,0.3l0.008-1.681
					c0.002-0.281-0.097-0.438-0.178-0.52c-0.199-0.203-0.531-0.189-0.818,0.055l-1.281,1.088l-0.832-1.459
					c-0.189-0.33-0.42-0.379-0.545-0.379c-0.111,0-0.396,0.047-0.551,0.475l-0.564,1.582l-1.45-0.848
					c-0.311-0.182-0.618-0.154-0.79,0.051c-0.081,0.099-0.167,0.277-0.113,0.58l0.303,1.652l-1.687-0.01
					c-0.421,0-0.569,0.225-0.613,0.32c-0.045,0.098-0.119,0.354,0.156,0.678l1.088,1.279l-1.462,0.834
					c-0.367,0.209-0.387,0.479-0.378,0.582c0.011,0.106,0.075,0.369,0.474,0.514l1.583,0.564l-0.849,1.448
					c-0.19,0.328-0.119,0.554-0.058,0.66c0.116,0.205,0.355,0.302,0.689,0.239l1.65-0.299l-0.009,1.681
					c0,0.058,0.007,0.104,0.015,0.151c-0.136,0.164-0.256,0.332-0.352,0.508c-1.633,0.171-2.825,1.093-2.825,2.238
					c0,1.271,1.478,2.269,3.362,2.269c0.512,0,1.016-0.076,1.469-0.222c1.115,0.549,2.508,0.849,3.957,0.849
					c1.906,0,3.672-0.513,4.854-1.392c1.01,0.869,2.707,1.394,4.601,1.394c3.112,0,5.553-1.418,5.553-3.229
					C70.961,73.275,69.764,72.176,67.848,71.654z M52.82,69.588c-1.062-0.357-1.838-1.307-1.94-2.471
					c-0.067-0.766,0.167-1.514,0.663-2.105c0.496-0.588,1.189-0.951,1.957-1.018c0.086-0.008,0.17-0.012,0.254-0.012
					c1.191,0,2.23,0.756,2.658,1.82C54.473,66.615,53.107,67.988,52.82,69.588z M48.584,70.061c-0.02,0.004-0.043,0.006-0.069,0.006
					c0.007-0.018,0.016-0.039,0.03-0.062l0.978-1.672L49.3,68.154l0.256,0.129l0.062-0.107l-0.034-0.117
					c-0.007-0.021-0.015-0.041-0.023-0.062l-0.097-0.131l-1.952-0.699c-0.028-0.008-0.05-0.021-0.066-0.026
					c0.017-0.013,0.034-0.025,0.062-0.039l1.718-0.979l0.127-0.067l0.03-0.138l-0.276-0.063l0.286,0.008l-0.021-0.154l-1.34-1.58
					c-0.02-0.02-0.034-0.041-0.044-0.057c0.018-0.002,0.042-0.006,0.072-0.006l1.979,0.014l0.164-0.012l0.095-0.111l0.074-0.152
					L50,61.752c-0.005-0.029-0.008-0.053-0.008-0.07c0.018,0.006,0.038,0.016,0.064,0.031l1.709,1.004l0.159,0.061l0.136-0.045
					l0.133-0.098l0.699-1.955c0.01-0.029,0.02-0.049,0.026-0.063c0.013,0.014,0.024,0.032,0.041,0.059l0.979,1.72l0.104,0.133
					l0.129,0.031l0.166,0.002l1.595-1.361c0.021-0.018,0.043-0.031,0.057-0.043c0.004,0.02,0.006,0.041,0.006,0.072l-0.012,1.987
					l-0.014,0.144l0.272,0.186l2.063-0.377c0.021-0.002,0.037-0.006,0.07-0.006c-0.008,0.018-0.018,0.037-0.031,0.061l-1.008,1.715
					l-0.059,0.144l0.039,0.129l0.094,0.147l0.145,0.052c-0.209,0.057-0.41,0.12-0.608,0.188c-0.55-1.365-1.947-2.301-3.5-2.166
					c-0.916,0.078-1.748,0.512-2.341,1.219c-0.592,0.707-0.875,1.603-0.793,2.519c0.124,1.44,1.116,2.601,2.45,2.992
					c-0.002,0.021-0.007,0.039-0.007,0.058c0,0.09,0.009,0.18,0.017,0.27c-0.008,0.029-0.019,0.062-0.023,0.093
					c-0.732,0.263-1.355,0.606-1.852,1.019l0.013-1.59l-0.019-0.148l-0.097-0.086l-0.153-0.084L48.584,70.061z M65.408,76.658
					c-1.785,0-3.443-0.559-4.125-1.387c-0.1-0.121-0.248-0.195-0.404-0.205c-0.012,0-0.021,0-0.035,0
					c-0.145,0-0.283,0.055-0.389,0.154c-0.934,0.885-2.658,1.436-4.5,1.436c-1.363,0-2.658-0.295-3.645-0.828
					c-0.146-0.082-0.322-0.09-0.479-0.029c-0.388,0.152-0.836,0.232-1.302,0.232c-1.275,0-2.229-0.6-2.229-1.135
					c0-0.5,0.854-1.086,2.083-1.131c0.228-0.009,0.429-0.15,0.511-0.363c0.306-0.799,1.31-1.508,2.687-1.9
					c0.293-0.084,0.467-0.385,0.396-0.684c-0.058-0.225-0.082-0.42-0.082-0.604c0-2.235,2.938-4.058,6.555-4.058
					c3.617,0,6.559,1.82,6.559,4.058c0,0.521-0.162,1.029-0.484,1.515c-0.104,0.16-0.125,0.36-0.049,0.537
					c0.076,0.176,0.232,0.301,0.42,0.338c1.699,0.303,2.933,1.129,2.933,1.959C69.826,75.555,68.012,76.658,65.408,76.658z"/>
			</g>
		</g>
	</g>
</g>
</svg>
