<?xml version="1.0" encoding="utf-8"?>
<!-- Generator: Adobe Illustrator 16.0.0, SVG Export Plug-In . SVG Version: 6.00 Build 0)  -->
<!DOCTYPE svg PUBLIC "-//W3C//DTD SVG 1.1//EN" "http://www.w3.org/Graphics/SVG/1.1/DTD/svg11.dtd">
<svg version="1.1" id="Layer_1" xmlns="http://www.w3.org/2000/svg" xmlns:xlink="http://www.w3.org/1999/xlink" x="0px" y="0px"
	 width="100px" height="100px" viewBox="0 0 100 100" enable-background="new 0 0 100 100" xml:space="preserve">
<g>
	<g>
		<g>
			<path fill="#772016" d="M45.572,74.191H35.557c-2.356,0-4.271-1.916-4.271-4.27V34.156c0-2.354,1.914-4.271,4.271-4.271h28.281
				c2.355,0,4.271,1.916,4.271,4.271v24.215c0,0.785-0.637,1.424-1.424,1.424c-0.785,0-1.424-0.639-1.424-1.424V34.156
				c0-0.787-0.64-1.426-1.425-1.426h-28.28c-0.785,0-1.424,0.639-1.424,1.426v35.767c0,0.785,0.639,1.425,1.424,1.425h10.015
				c0.785,0,1.423,0.635,1.423,1.424C46.995,73.555,46.357,74.191,45.572,74.191z"/>
		</g>
		<g>
			<path fill="#772016" d="M40.843,42.059c0,0.316-0.256,0.57-0.57,0.57h-2.366c-0.315,0-0.569-0.254-0.569-0.57v-2.365
				c0-0.314,0.254-0.568,0.569-0.568h2.366c0.314,0,0.57,0.254,0.57,0.568V42.059z"/>
		</g>
		<g>
			<path fill="#772016" d="M60.717,42.059c0,0.316-0.254,0.57-0.57,0.57H44.454c-0.313,0-0.569-0.254-0.569-0.57v-2.365
				c0-0.314,0.256-0.568,0.569-0.568h15.692c0.316,0,0.57,0.254,0.57,0.568V42.059z"/>
		</g>
		<g>
			<path fill="#772016" d="M40.843,48.277c0,0.314-0.256,0.57-0.57,0.57h-2.366c-0.315,0-0.569-0.256-0.569-0.57V45.91
				c0-0.314,0.254-0.568,0.569-0.568h2.366c0.314,0,0.57,0.254,0.57,0.568V48.277z"/>
		</g>
		<g>
			<path fill="#772016" d="M60.717,48.277c0,0.314-0.254,0.57-0.57,0.57H44.454c-0.313,0-0.569-0.256-0.569-0.57V45.91
				c0-0.314,0.256-0.568,0.569-0.568h15.692c0.316,0,0.57,0.254,0.57,0.568V48.277z"/>
		</g>
		<g>
			<path fill="#772016" d="M40.843,55.287c0,0.314-0.256,0.568-0.57,0.568h-2.366c-0.315,0-0.569-0.254-0.569-0.568V52.92
				c0-0.314,0.254-0.568,0.569-0.568h2.366c0.314,0,0.57,0.254,0.57,0.568V55.287z"/>
		</g>
		<g>
			<path fill="#772016" d="M60.717,55.287c0,0.314-0.254,0.568-0.57,0.568H44.454c-0.313,0-0.569-0.254-0.569-0.568V52.92
				c0-0.314,0.256-0.568,0.569-0.568h15.692c0.316,0,0.57,0.254,0.57,0.568V55.287z"/>
		</g>
		<g>
			<path fill="#772016" d="M49.253,21.148c-8.392,0-14.158,6.744-14.158,6.744v1.021v1.254v0.482c0,1.141,0.927,2.068,2.068,2.068
				h24.18c1.144,0,2.068-0.928,2.068-2.068v-0.482v-1.176v-1.1C58.039,21.227,49.253,21.148,49.253,21.148z M49.252,28.834
				c-1.537,0-2.784-1.246-2.784-2.783c0-1.539,1.247-2.785,2.784-2.785c1.539,0,2.787,1.246,2.787,2.785
				C52.039,27.588,50.792,28.834,49.252,28.834z"/>
		</g>
		<path fill="#772016" d="M66.354,64.077h-0.795c-0.149-0.892-0.922-1.572-1.854-1.572h-0.492v-1.887
			c0-1.041-0.846-1.888-1.887-1.888h-5.431c-1.041,0-1.887,0.847-1.887,1.888v1.887h-0.492c-0.934,0-1.703,0.683-1.854,1.572h-0.797
			c-1.302,0-2.358,1.056-2.358,2.358v7.234c0,1.303,1.057,2.357,2.358,2.357h0.764v0.937c0,1.041,0.846,1.888,1.887,1.888h10.188
			c1.041,0,1.887-0.847,1.887-1.888v-0.937h0.765c1.303,0,2.358-1.055,2.358-2.357v-7.234
			C68.713,65.133,67.656,64.077,66.354,64.077z M54.951,60.618c0-0.521,0.424-0.944,0.943-0.944h5.43
			c0.521,0,0.943,0.424,0.943,0.944v3.772c0,0.52-0.422,0.942-0.943,0.942h-5.43c-0.521,0-0.943-0.424-0.943-0.942V60.618z
			 M52.572,64.393c0-0.521,0.422-0.943,0.943-0.943h0.491v0.941c0,1.041,0.847,1.887,1.888,1.887h5.43
			c1.041,0,1.887-0.846,1.887-1.887v-0.941h0.492c0.52,0,0.945,0.424,0.945,0.943v2.961c0,0.521-0.426,0.942-0.945,0.942H53.516
			c-0.521,0-0.943-0.423-0.943-0.942V64.393L52.572,64.393z M64.648,76.965c0,0.521-0.426,0.944-0.945,0.944H53.516
			c-0.521,0-0.943-0.425-0.943-0.944v-2.961c0-0.52,0.423-0.943,0.943-0.943h10.188c0.521,0,0.944,0.426,0.944,0.943V76.965
			L64.648,76.965z"/>
	</g>
</g>
</svg>
