<?xml version="1.0" encoding="utf-8"?>
<!-- Generator: Adobe Illustrator 16.0.0, SVG Export Plug-In . SVG Version: 6.00 Build 0)  -->
<!DOCTYPE svg PUBLIC "-//W3C//DTD SVG 1.1//EN" "http://www.w3.org/Graphics/SVG/1.1/DTD/svg11.dtd">
<svg version="1.1" id="Layer_1" xmlns="http://www.w3.org/2000/svg" xmlns:xlink="http://www.w3.org/1999/xlink" x="0px" y="0px"
	 width="100px" height="100px" viewBox="0 0 100 100" enable-background="new 0 0 100 100" xml:space="preserve">
<g>
	<g>
		<g>
			<g>
				<g>
					<g>
						<path fill="#772016" d="M45.163,70.547H32.028c-3.062,0-5.553-2.49-5.553-5.553V38.613c0-3.062,2.528-5.551,5.59-5.551h31.503
							c3.062,0,5.602,2.488,5.602,5.551l-0.049,11.273c0,1.01-0.77,1.83-1.781,1.83c-1.008,0-1.877-0.82-1.877-1.83l0.049-11.273
							c0-1.045-0.898-1.895-1.943-1.895H32.065c-1.045,0-1.895,0.85-1.895,1.895v26.381c0,1.047,0.85,1.896,1.895,1.896h13.098
							c1.011,0,1.829,0.816,1.829,1.828C46.992,69.729,46.173,70.547,45.163,70.547z"/>
					</g>
				</g>
				<g>
					<g>
						<g>
							<path fill="#772016" d="M38.672,46.354c0,0.561-0.453,1.012-1.012,1.012h-3.746c-0.559,0-1.012-0.451-1.012-1.012v-3.744
								c0-0.559,0.453-1.012,1.012-1.012h3.746c0.559,0,1.012,0.453,1.012,1.012V46.354z"/>
						</g>
						<g>
							<path fill="#772016" d="M46.668,46.354c0,0.561-0.452,1.012-1.012,1.012h-3.746c-0.559,0-1.012-0.451-1.012-1.012v-3.744
								c0-0.559,0.453-1.012,1.012-1.012h3.746c0.56,0,1.012,0.453,1.012,1.012V46.354z"/>
						</g>
						<g>
							<path fill="#772016" d="M54.568,46.354c0,0.561-0.453,1.012-1.012,1.012h-3.746c-0.559,0-1.01-0.451-1.01-1.012v-3.744
								c0-0.559,0.451-1.012,1.01-1.012h3.746c0.559,0,1.012,0.453,1.012,1.012V46.354z"/>
						</g>
						<g>
							<path fill="#772016" d="M62.564,46.354c0,0.561-0.453,1.012-1.012,1.012h-3.744c-0.559,0-1.014-0.451-1.014-1.012v-3.744
								c0-0.559,0.455-1.012,1.014-1.012h3.744c0.559,0,1.012,0.453,1.012,1.012V46.354z"/>
						</g>
						<g>
							<path fill="#772016" d="M38.672,54.639c0,0.561-0.453,1.014-1.012,1.014h-3.746c-0.559,0-1.012-0.453-1.012-1.014v-3.742
								c0-0.561,0.453-1.014,1.012-1.014h3.746c0.559,0,1.012,0.453,1.012,1.014V54.639z"/>
						</g>
						<g>
							<path fill="#772016" d="M46.668,54.639c0,0.561-0.452,1.014-1.012,1.014h-3.746c-0.559,0-1.012-0.453-1.012-1.014v-3.742
								c0-0.561,0.453-1.014,1.012-1.014h3.746c0.56,0,1.012,0.453,1.012,1.014V54.639z"/>
						</g>
						<g>
							<path fill="#772016" d="M54.568,54.639c0,0.561-0.453,1.014-1.012,1.014h-3.746c-0.559,0-1.01-0.453-1.01-1.014v-3.742
								c0-0.561,0.451-1.014,1.01-1.014h3.746c0.559,0,1.012,0.453,1.012,1.014V54.639z"/>
						</g>
						<g>
							<path fill="#772016" d="M38.672,62.781c0,0.561-0.453,1.012-1.012,1.012h-3.746c-0.559,0-1.012-0.451-1.012-1.012v-3.746
								c0-0.559,0.453-1.012,1.012-1.012h3.746c0.559,0,1.012,0.453,1.012,1.012V62.781z"/>
						</g>
						<g>
							<path fill="#772016" d="M46.668,62.781c0,0.561-0.452,1.012-1.012,1.012h-3.746c-0.559,0-1.012-0.451-1.012-1.012v-3.746
								c0-0.559,0.453-1.012,1.012-1.012h3.746c0.56,0,1.012,0.453,1.012,1.012V62.781z"/>
						</g>
					</g>
					<g>
						<path fill="#772016" d="M38.809,27.361c0,1.064-0.863,1.926-1.928,1.926h-0.867c-1.064,0-1.926-0.861-1.926-1.926v-3.373
							c0-1.062,0.861-1.926,1.926-1.926h0.867c1.064,0,1.928,0.863,1.928,1.926V27.361z"/>
					</g>
					<g>
						<path fill="#772016" d="M61.738,27.361c0,1.064-0.863,1.926-1.928,1.926h-0.867c-1.064,0-1.926-0.861-1.926-1.926v-3.373
							c0-1.062,0.861-1.926,1.926-1.926h0.867c1.064,0,1.928,0.863,1.928,1.926V27.361z"/>
					</g>
					<g>
						<path fill="#772016" d="M69.17,38.613v-7.818c0-2.055-1.668-3.725-3.725-3.725H30.021c-2.057,0-3.546,1.67-3.546,3.725v7.818
							H69.17z"/>
					</g>
				</g>
			</g>
			<g>
				<polygon fill="#772016" points="52.686,57.33 60.859,57.33 60.859,65.158 49.43,65.158 				"/>
			</g>
			<g>
				<polygon fill="#772016" points="70.645,57.33 73.525,64.812 62.012,61.82 62.012,54.105 				"/>
			</g>
			<g>
				<polygon fill="#772016" points="64.59,66.424 64.59,75.416 62.791,74.084 61.477,76.061 59.887,74.188 58.363,75.416 
					58.363,66.424 49.43,66.424 49.43,77.938 73.525,77.938 73.525,66.424 				"/>
			</g>
		</g>
	</g>
</g>
</svg>
