<?xml version="1.0" encoding="utf-8"?>
<!-- Generator: Adobe Illustrator 16.0.0, SVG Export Plug-In . SVG Version: 6.00 Build 0)  -->
<!DOCTYPE svg PUBLIC "-//W3C//DTD SVG 1.1//EN" "http://www.w3.org/Graphics/SVG/1.1/DTD/svg11.dtd">
<svg version="1.1" id="Layer_1" xmlns="http://www.w3.org/2000/svg" xmlns:xlink="http://www.w3.org/1999/xlink" x="0px" y="0px"
	 width="100px" height="100px" viewBox="0 0 100 100" enable-background="new 0 0 100 100" xml:space="preserve">
<g>
	<g>
		<g>
			<g>
				<path fill="#772016" d="M45.594,73.438H35.579c-2.356,0-4.271-1.916-4.271-4.27V33.402c0-2.355,1.914-4.271,4.271-4.271h28.282
					c2.355,0,4.27,1.916,4.27,4.271v24.215c0,0.785-0.637,1.424-1.424,1.424c-0.785,0-1.424-0.639-1.424-1.424V33.402
					c0-0.787-0.639-1.426-1.422-1.426H35.579c-0.785,0-1.424,0.639-1.424,1.426v35.766c0,0.785,0.639,1.424,1.424,1.424h10.015
					c0.785,0,1.423,0.635,1.423,1.424C47.017,72.799,46.379,73.438,45.594,73.438z"/>
			</g>
			<g>
				<path fill="#772016" d="M40.865,41.304c0,0.316-0.256,0.57-0.57,0.57h-2.366c-0.315,0-0.569-0.254-0.569-0.57v-2.365
					c0-0.314,0.254-0.568,0.569-0.568h2.366c0.314,0,0.57,0.254,0.57,0.568V41.304z"/>
			</g>
			<g>
				<path fill="#772016" d="M60.738,41.304c0,0.316-0.254,0.57-0.57,0.57H44.476c-0.313,0-0.569-0.254-0.569-0.57v-2.365
					c0-0.314,0.256-0.568,0.569-0.568h15.692c0.316,0,0.57,0.254,0.57,0.568V41.304z"/>
			</g>
			<g>
				<path fill="#772016" d="M40.865,47.523c0,0.314-0.256,0.57-0.57,0.57h-2.366c-0.315,0-0.569-0.256-0.569-0.57v-2.367
					c0-0.314,0.254-0.568,0.569-0.568h2.366c0.314,0,0.57,0.254,0.57,0.568V47.523z"/>
			</g>
			<g>
				<path fill="#772016" d="M60.738,47.523c0,0.314-0.254,0.57-0.57,0.57H44.476c-0.313,0-0.569-0.256-0.569-0.57v-2.367
					c0-0.314,0.256-0.568,0.569-0.568h15.692c0.316,0,0.57,0.254,0.57,0.568V47.523z"/>
			</g>
			<g>
				<path fill="#772016" d="M40.865,54.533c0,0.314-0.256,0.568-0.57,0.568h-2.366c-0.315,0-0.569-0.254-0.569-0.568v-2.367
					c0-0.314,0.254-0.568,0.569-0.568h2.366c0.314,0,0.57,0.254,0.57,0.568V54.533z"/>
			</g>
			<g>
				<path fill="#772016" d="M60.738,54.533c0,0.314-0.254,0.568-0.57,0.568H44.476c-0.313,0-0.569-0.254-0.569-0.568v-2.367
					c0-0.314,0.256-0.568,0.569-0.568h15.692c0.316,0,0.57,0.254,0.57,0.568V54.533z"/>
			</g>
			<g>
				<path fill="#772016" d="M64.35,60.975c-0.455,0-0.906,0.072-1.338,0.213c-0.877-1.963-2.852-3.279-5.041-3.279
					c-2.219,0-4.199,1.336-5.062,3.328c-0.471-0.172-0.969-0.262-1.469-0.262c-2.395,0-4.343,1.947-4.343,4.344
					c0,2.273,1.757,4.143,3.985,4.324l1.195,9.963h11.441l1.043-9.969c2.201-0.209,3.93-2.066,3.93-4.318
					C68.691,62.922,66.744,60.975,64.35,60.975z M53.488,78.24l-0.176-1.475h9.328l-0.154,1.475H53.488z M64.35,68.291
					c-0.057,0-0.111-0.002-0.166-0.008l-0.648-0.033l-0.752,7.15h-1.211v-2.691h-1.365V75.4h-1.521v-4.271h-1.363V75.4h-1.543
					v-2.691h-1.367V75.4h-1.264l-0.857-7.16l-0.646,0.043c-0.068,0.006-0.137,0.008-0.205,0.008c-1.643,0-2.975-1.336-2.975-2.973
					c0-1.641,1.332-2.977,2.975-2.977c0.529,0,1.053,0.146,1.514,0.42l0.775,0.459l0.234-0.869c0.484-1.811,2.135-3.078,4.008-3.078
					c1.84,0,3.482,1.238,3.99,3.01l0.232,0.816l0.748-0.402c0.432-0.232,0.918-0.355,1.408-0.355c1.641,0,2.975,1.336,2.975,2.977
					C67.324,66.955,65.99,68.291,64.35,68.291z"/>
			</g>
			<g>
				<path fill="#772016" d="M49.275,20.394c-8.392,0-14.158,6.744-14.158,6.744v1.021v1.254v0.482c0,1.141,0.927,2.068,2.068,2.068
					h24.18c1.143,0,2.068-0.928,2.068-2.068v-0.482v-1.176v-1.1C58.061,20.472,49.275,20.394,49.275,20.394z M49.275,28.08
					c-1.537,0-2.785-1.246-2.785-2.783c0-1.539,1.248-2.785,2.785-2.785c1.539,0,2.785,1.246,2.785,2.785
					C52.061,26.833,50.814,28.08,49.275,28.08z"/>
			</g>
		</g>
	</g>
</g>
</svg>
