<?xml version="1.0" encoding="utf-8"?>
<!-- Generator: Adobe Illustrator 16.0.0, SVG Export Plug-In . SVG Version: 6.00 Build 0)  -->
<!DOCTYPE svg PUBLIC "-//W3C//DTD SVG 1.1//EN" "http://www.w3.org/Graphics/SVG/1.1/DTD/svg11.dtd">
<svg version="1.1" id="Layer_1" xmlns="http://www.w3.org/2000/svg" xmlns:xlink="http://www.w3.org/1999/xlink" x="0px" y="0px"
	 width="100px" height="100px" viewBox="0 0 100 100" enable-background="new 0 0 100 100" xml:space="preserve">
<g>
	<g>
		<g>
			<path fill="#772016" d="M42.401,68.521h-8.448c-2.389,0-4.332-1.941-4.332-4.33V27.908c0-2.391,1.943-4.332,4.332-4.332h28.689
				c2.389,0,4.332,1.941,4.332,4.332V56.01c0,0.797-0.646,1.445-1.443,1.445c-0.799,0-1.445-0.648-1.445-1.445V27.908
				c0-0.797-0.646-1.445-1.443-1.445H33.953c-0.796,0-1.443,0.648-1.443,1.445v36.284c0,0.795,0.647,1.445,1.443,1.445h8.448
				c0.799,0,1.444,0.645,1.444,1.443C43.846,67.877,43.2,68.521,42.401,68.521z"/>
		</g>
		<g>
			<path fill="#772016" d="M39.314,35.925c0,0.32-0.258,0.578-0.577,0.578h-2.401c-0.318,0-0.577-0.258-0.577-0.578v-2.4
				c0-0.318,0.259-0.576,0.577-0.576h2.401c0.319,0,0.577,0.258,0.577,0.576V35.925z"/>
		</g>
		<g>
			<path fill="#772016" d="M59.475,35.925c0,0.32-0.258,0.578-0.576,0.578h-15.92c-0.318,0-0.577-0.258-0.577-0.578v-2.4
				c0-0.318,0.259-0.576,0.577-0.576h15.92c0.318,0,0.576,0.258,0.576,0.576V35.925z"/>
		</g>
		<g>
			<path fill="#772016" d="M39.314,42.232c0,0.32-0.258,0.578-0.577,0.578h-2.401c-0.318,0-0.577-0.258-0.577-0.578v-2.4
				c0-0.318,0.259-0.576,0.577-0.576h2.401c0.319,0,0.577,0.258,0.577,0.576V42.232z"/>
		</g>
		<g>
			<path fill="#772016" d="M59.475,42.232c0,0.32-0.258,0.578-0.576,0.578h-15.92c-0.318,0-0.577-0.258-0.577-0.578v-2.4
				c0-0.318,0.259-0.576,0.577-0.576h15.92c0.318,0,0.576,0.258,0.576,0.576V42.232z"/>
		</g>
		<g>
			<path fill="#772016" d="M39.314,49.345c0,0.318-0.258,0.578-0.577,0.578h-2.401c-0.318,0-0.577-0.26-0.577-0.578v-2.402
				c0-0.318,0.259-0.576,0.577-0.576h2.401c0.319,0,0.577,0.258,0.577,0.576V49.345z"/>
		</g>
		<g>
			<path fill="#772016" d="M59.475,49.345c0,0.318-0.258,0.578-0.576,0.578h-15.92c-0.318,0-0.577-0.26-0.577-0.578v-2.402
				c0-0.318,0.259-0.576,0.577-0.576h15.92c0.318,0,0.576,0.258,0.576,0.576V49.345z"/>
		</g>
		<g>
			<path fill="#772016" d="M60.381,74.445c0,1.092-0.885,1.979-1.979,1.979l0,0c-1.094,0-1.979-0.887-1.979-1.979V54.451
				c0-1.094,0.885-1.979,1.979-1.979l0,0c1.094,0,1.979,0.885,1.979,1.979V74.445z"/>
		</g>
		<g>
			<path fill="#772016" d="M48.406,66.426c-1.094,0-1.979-0.885-1.979-1.979l0,0c0-1.094,0.886-1.979,1.979-1.979h19.992
				c1.094,0,1.98,0.885,1.98,1.979l0,0c0,1.094-0.887,1.979-1.98,1.979H48.406z"/>
		</g>
	</g>
</g>
</svg>
