<?xml version="1.0" encoding="utf-8"?>
<!-- Generator: Adobe Illustrator 16.0.0, SVG Export Plug-In . SVG Version: 6.00 Build 0)  -->
<!DOCTYPE svg PUBLIC "-//W3C//DTD SVG 1.1//EN" "http://www.w3.org/Graphics/SVG/1.1/DTD/svg11.dtd">
<svg version="1.1" id="Layer_1" xmlns="http://www.w3.org/2000/svg" xmlns:xlink="http://www.w3.org/1999/xlink" x="0px" y="0px"
	 width="100px" height="100px" viewBox="0 0 100 100" enable-background="new 0 0 100 100" xml:space="preserve">
<g>
	<g>
		<g>
			<g>
				<path fill="#772016" d="M57.547,66.328c0.008,0.021,0.016,0.041,0.021,0.061c0.029,0.117,0.137,0.225,0.279,0.283
					c0.088,0.033,0.189,0.043,0.289,0.021c0,0,0.037-0.01,0.102-0.029c0.023-0.004,0.043-0.004,0.066-0.01
					c0.053-0.014,0.105-0.031,0.152-0.049c1.389-0.373,6.812-1.852,6.758-2.08c-0.049-0.209-4.322,0.15-6.193,0.521
					c-0.389-1.254-1.623-3.48-1.898-3.416C56.82,61.701,57.537,66.283,57.547,66.328z"/>
			</g>
			<g>
				<path fill="#772016" d="M67.646,66.459c-0.891-0.258-1.82,0.256-2.076,1.146c-0.885,3.062-3.732,5.203-6.926,5.203
					c-3.973,0-7.205-3.234-7.205-7.207c0-3.975,3.232-7.207,7.205-7.207c1.789,0,3.459,0.639,4.775,1.811l-1.52,1.521l6.236,0.535
					l-0.529-6.246l-1.818,1.818c-1.939-1.783-4.496-2.791-7.145-2.791c-5.822,0-10.557,4.736-10.557,10.559
					S52.822,76.16,58.645,76.16c4.678,0,8.85-3.139,10.146-7.625C69.047,67.645,68.535,66.715,67.646,66.459z"/>
			</g>
		</g>
		<g>
			<g>
				<path fill="#772016" d="M43.975,69.764h-8.633c-2.439,0-4.426-1.982-4.426-4.424V28.266c0-2.441,1.986-4.426,4.426-4.426h29.316
					c2.439,0,4.426,1.984,4.426,4.426v23.893c0,0.816-0.66,1.477-1.477,1.477c-0.814,0-1.475-0.66-1.475-1.477V28.266
					c0-0.812-0.662-1.477-1.475-1.477H35.342c-0.814,0-1.475,0.664-1.475,1.477V65.34c0,0.812,0.66,1.475,1.475,1.475h8.633
					c0.814,0,1.475,0.66,1.475,1.475C45.449,69.105,44.789,69.764,43.975,69.764z"/>
			</g>
			<g>
				<path fill="#772016" d="M40.821,36.461c0,0.324-0.265,0.588-0.591,0.588h-2.452c-0.327,0-0.591-0.264-0.591-0.588v-2.455
					c0-0.324,0.264-0.588,0.591-0.588h2.452c0.326,0,0.591,0.264,0.591,0.588V36.461z"/>
			</g>
			<g>
				<path fill="#772016" d="M61.42,36.461c0,0.324-0.264,0.588-0.59,0.588H44.564c-0.326,0-0.59-0.264-0.59-0.588v-2.455
					c0-0.324,0.264-0.588,0.59-0.588H60.83c0.326,0,0.59,0.264,0.59,0.588V36.461z"/>
			</g>
			<g>
				<path fill="#772016" d="M40.821,42.902c0,0.328-0.265,0.592-0.591,0.592h-2.452c-0.327,0-0.591-0.264-0.591-0.592v-2.451
					c0-0.326,0.264-0.592,0.591-0.592h2.452c0.326,0,0.591,0.266,0.591,0.592V42.902z"/>
			</g>
			<g>
				<path fill="#772016" d="M61.42,42.902c0,0.328-0.264,0.592-0.59,0.592H44.564c-0.326,0-0.59-0.264-0.59-0.592v-2.451
					c0-0.326,0.264-0.592,0.59-0.592H60.83c0.326,0,0.59,0.266,0.59,0.592V42.902z"/>
			</g>
			<g>
				<path fill="#772016" d="M40.821,50.17c0,0.326-0.265,0.59-0.591,0.59h-2.452c-0.327,0-0.591-0.264-0.591-0.59v-2.453
					c0-0.324,0.264-0.592,0.591-0.592h2.452c0.326,0,0.591,0.268,0.591,0.592V50.17z"/>
			</g>
			<g>
				<path fill="#772016" d="M61.42,50.17c0,0.326-0.264,0.59-0.59,0.59H44.564c-0.326,0-0.59-0.264-0.59-0.59v-2.453
					c0-0.324,0.264-0.592,0.59-0.592H60.83c0.326,0,0.59,0.268,0.59,0.592V50.17z"/>
			</g>
		</g>
	</g>
</g>
</svg>
