<?xml version="1.0" encoding="utf-8"?>
<!-- Generator: Adobe Illustrator 16.0.0, SVG Export Plug-In . SVG Version: 6.00 Build 0)  -->
<!DOCTYPE svg PUBLIC "-//W3C//DTD SVG 1.1//EN" "http://www.w3.org/Graphics/SVG/1.1/DTD/svg11.dtd">
<svg version="1.1" id="Layer_1" xmlns="http://www.w3.org/2000/svg" xmlns:xlink="http://www.w3.org/1999/xlink" x="0px" y="0px"
	 width="100px" height="100px" viewBox="0 0 100 100" enable-background="new 0 0 100 100" xml:space="preserve">
<g>
	<g>
		<g>
			<g>
				<path fill="#772016" d="M26.742,63.875c-0.738,0-1.336-0.596-1.336-1.336V53.85c0-0.342,0.133-0.672,0.365-0.92l10.203-10.765
					c0.246-0.264,0.592-0.414,0.953-0.418c0.355-0.02,0.709,0.141,0.965,0.396l6.707,6.791l10.006-10.008
					c0.252-0.25,0.604-0.391,0.947-0.391c0.355,0,0.695,0.145,0.947,0.395l6.293,6.379l10.121-8.877v-0.061
					c0-2.336-1.898-4.234-4.234-4.234H32.311c-2.336,0-4.234,1.898-4.234,4.234v9.5c0,0.736-0.6,1.332-1.334,1.332
					c-0.738,0-1.336-0.596-1.336-1.332v-9.5c0-3.807,3.098-6.904,6.904-6.904H68.68c3.807,0,6.904,3.098,6.904,6.904v0.666
					c0,0.385-0.164,0.748-0.457,1.002l-11.52,10.107c-0.531,0.467-1.332,0.436-1.828-0.066l-6.236-6.316L45.537,51.77
					c-0.25,0.25-0.59,0.393-0.943,0.393c-0.002,0-0.002,0-0.006,0c-0.355-0.002-0.695-0.145-0.943-0.398L36.961,45l-8.885,9.378
					v8.16C28.076,63.279,27.477,63.875,26.742,63.875z"/>
			</g>
			<g>
				<path fill="#772016" d="M74.248,63.875c-0.734,0-1.334-0.596-1.334-1.336V46.842c0-0.736,0.6-1.334,1.334-1.334
					c0.738,0,1.336,0.598,1.336,1.334v15.697C75.584,63.279,74.986,63.875,74.248,63.875z"/>
			</g>
			<g>
				<path fill="#772016" d="M72.529,70.531H27.471c-3.807,0-6.904-3.096-6.904-6.904v-2.328h23.779v1.502
					c0,0.494,0.398,0.895,0.891,0.895h9.525c0.494,0,0.893-0.4,0.893-0.895v-1.502h23.779v2.328
					C79.434,67.436,76.336,70.531,72.529,70.531z M23.25,63.965c0.174,2.178,2,3.898,4.221,3.898h45.059
					c2.221,0,4.047-1.721,4.221-3.898H58.129c-0.484,1.396-1.811,2.398-3.367,2.398h-9.525c-1.555,0-2.881-1.002-3.363-2.398H23.25z
					"/>
			</g>
			<g>
				<rect x="30.707" y="53.66" fill="#772016" width="1.986" height="5.572"/>
			</g>
			<g>
				<rect x="41.828" y="53.66" fill="#772016" width="1.984" height="5.572"/>
			</g>
			<g>
				<rect x="45.537" y="53.66" fill="#772016" width="1.98" height="5.572"/>
			</g>
			<g>
				<rect x="34.414" y="50.354" fill="#772016" width="1.984" height="8.878"/>
			</g>
			<g>
				<rect x="38.123" y="50.354" fill="#772016" width="1.982" height="8.878"/>
			</g>
			<g>
				<rect x="49.133" y="50.354" fill="#772016" width="2.203" height="8.878"/>
			</g>
			<g>
				<rect x="60.256" y="50.354" fill="#772016" width="2.201" height="8.878"/>
			</g>
			<g>
				<rect x="63.963" y="50.354" fill="#772016" width="2.201" height="8.878"/>
			</g>
			<g>
				<rect x="52.84" y="45.872" fill="#772016" width="2.203" height="13.361"/>
			</g>
			<g>
				<rect x="56.549" y="45.872" fill="#772016" width="2.201" height="13.361"/>
			</g>
			<g>
				<rect x="67.67" y="45.872" fill="#772016" width="2.201" height="13.361"/>
			</g>
			<g>
				<rect x="30.707" y="34.842" fill="#772016" width="2.031" height="2.029"/>
			</g>
			<g>
				<rect x="34.301" y="34.842" fill="#772016" width="2.029" height="2.029"/>
			</g>
			<g>
				<rect x="37.635" y="34.842" fill="#772016" width="2.029" height="2.029"/>
			</g>
		</g>
	</g>
</g>
</svg>
