<?xml version="1.0" encoding="utf-8"?>
<!-- Generator: Adobe Illustrator 16.0.0, SVG Export Plug-In . SVG Version: 6.00 Build 0)  -->
<!DOCTYPE svg PUBLIC "-//W3C//DTD SVG 1.1//EN" "http://www.w3.org/Graphics/SVG/1.1/DTD/svg11.dtd">
<svg version="1.1" id="Layer_1" xmlns="http://www.w3.org/2000/svg" xmlns:xlink="http://www.w3.org/1999/xlink" x="0px" y="0px"
	 width="100px" height="100px" viewBox="0 0 100 100" enable-background="new 0 0 100 100" xml:space="preserve">
<g>
	<g>
		<g>
			<path fill="#772016" d="M58.605,76.283c-5.771,0-10.463-4.693-10.463-10.463c0-5.768,4.693-10.461,10.463-10.461
				c5.77,0,10.461,4.693,10.461,10.461C69.066,71.59,64.375,76.283,58.605,76.283z M58.605,58.139c-4.236,0-7.683,3.445-7.683,7.682
				c0,4.234,3.445,7.681,7.683,7.681c4.233,0,7.678-3.444,7.678-7.681S62.84,58.139,58.605,58.139z"/>
		</g>
		<g>
			<path fill="#772016" d="M62.271,68.031h-4.228c-0.767,0-1.39-0.623-1.39-1.391v-4.978c0-0.769,0.623-1.392,1.39-1.392
				c0.771,0,1.394,0.623,1.394,1.392v3.586h2.834c0.768,0,1.392,0.623,1.392,1.392C63.663,67.408,63.039,68.031,62.271,68.031z"/>
		</g>
	</g>
	<g>
		<g>
			<path fill="#772016" d="M43.975,69.643h-8.633c-2.439,0-4.426-1.983-4.426-4.426V28.143c0-2.441,1.986-4.426,4.426-4.426h29.316
				c2.439,0,4.426,1.984,4.426,4.426v23.892c0,0.816-0.66,1.479-1.477,1.479c-0.814,0-1.476-0.662-1.476-1.479V28.143
				c0-0.812-0.661-1.475-1.475-1.475H35.342c-0.814,0-1.475,0.662-1.475,1.475v37.074c0,0.814,0.66,1.475,1.475,1.475h8.633
				c0.814,0,1.475,0.66,1.475,1.478C45.449,68.982,44.789,69.643,43.975,69.643z"/>
		</g>
		<g>
			<path fill="#772016" d="M40.82,36.338c0,0.324-0.264,0.59-0.59,0.59h-2.453c-0.326,0-0.59-0.266-0.59-0.59v-2.453
				c0-0.326,0.264-0.59,0.59-0.59h2.453c0.326,0,0.59,0.264,0.59,0.59V36.338z"/>
		</g>
		<g>
			<path fill="#772016" d="M61.42,36.338c0,0.324-0.264,0.59-0.59,0.59H44.564c-0.326,0-0.59-0.266-0.59-0.59v-2.453
				c0-0.326,0.264-0.59,0.59-0.59H60.83c0.326,0,0.59,0.264,0.59,0.59V36.338z"/>
		</g>
		<g>
			<path fill="#772016" d="M40.82,42.782c0,0.326-0.264,0.59-0.59,0.59h-2.453c-0.326,0-0.59-0.264-0.59-0.59v-2.451
				c0-0.328,0.264-0.592,0.59-0.592h2.453c0.326,0,0.59,0.264,0.59,0.592V42.782z"/>
		</g>
		<g>
			<path fill="#772016" d="M61.42,42.782c0,0.326-0.264,0.59-0.59,0.59H44.564c-0.326,0-0.59-0.264-0.59-0.59v-2.451
				c0-0.328,0.264-0.592,0.59-0.592H60.83c0.326,0,0.59,0.264,0.59,0.592V42.782z"/>
		</g>
		<g>
			<path fill="#772016" d="M40.82,50.047c0,0.326-0.264,0.592-0.59,0.592h-2.453c-0.326,0-0.59-0.266-0.59-0.592v-2.451
				c0-0.326,0.264-0.592,0.59-0.592h2.453c0.326,0,0.59,0.266,0.59,0.592V50.047z"/>
		</g>
		<g>
			<path fill="#772016" d="M61.42,50.047c0,0.326-0.264,0.592-0.59,0.592H44.564c-0.326,0-0.59-0.266-0.59-0.592v-2.451
				c0-0.326,0.264-0.592,0.59-0.592H60.83c0.326,0,0.59,0.266,0.59,0.592V50.047z"/>
		</g>
	</g>
</g>
</svg>
