<?xml version="1.0" encoding="utf-8"?>
<!-- Generator: Adobe Illustrator 16.0.0, SVG Export Plug-In . SVG Version: 6.00 Build 0)  -->
<!DOCTYPE svg PUBLIC "-//W3C//DTD SVG 1.1//EN" "http://www.w3.org/Graphics/SVG/1.1/DTD/svg11.dtd">
<svg version="1.1" id="Layer_1" xmlns="http://www.w3.org/2000/svg" xmlns:xlink="http://www.w3.org/1999/xlink" x="0px" y="0px"
	 width="100px" height="100px" viewBox="0 0 100 100" enable-background="new 0 0 100 100" xml:space="preserve">
<g>
	<g>
		<g>
			<g>
				<path fill="#772016" d="M43.975,69.695h-8.633c-2.439,0-4.426-1.984-4.426-4.426V28.195c0-2.441,1.986-4.426,4.426-4.426h29.316
					c2.439,0,4.426,1.984,4.426,4.426v23.893c0,0.816-0.66,1.479-1.477,1.479c-0.814,0-1.476-0.662-1.476-1.479V28.195
					c0-0.812-0.661-1.475-1.475-1.475H35.342c-0.814,0-1.475,0.662-1.475,1.475V65.27c0,0.814,0.66,1.476,1.475,1.476h8.633
					c0.814,0,1.475,0.659,1.475,1.478C45.449,69.035,44.789,69.695,43.975,69.695z"/>
			</g>
			<g>
				<path fill="#772016" d="M40.82,36.39c0,0.324-0.264,0.59-0.59,0.59h-2.453c-0.326,0-0.59-0.266-0.59-0.59v-2.453
					c0-0.326,0.264-0.59,0.59-0.59h2.453c0.326,0,0.59,0.264,0.59,0.59V36.39z"/>
			</g>
			<g>
				<path fill="#772016" d="M61.42,36.39c0,0.324-0.264,0.59-0.59,0.59H44.564c-0.326,0-0.59-0.266-0.59-0.59v-2.453
					c0-0.326,0.264-0.59,0.59-0.59H60.83c0.326,0,0.59,0.264,0.59,0.59V36.39z"/>
			</g>
			<g>
				<path fill="#772016" d="M40.82,42.833c0,0.326-0.264,0.59-0.59,0.59h-2.453c-0.326,0-0.59-0.264-0.59-0.59v-2.451
					c0-0.328,0.264-0.592,0.59-0.592h2.453c0.326,0,0.59,0.264,0.59,0.592V42.833z"/>
			</g>
			<g>
				<path fill="#772016" d="M61.42,42.833c0,0.326-0.264,0.59-0.59,0.59H44.564c-0.326,0-0.59-0.264-0.59-0.59v-2.451
					c0-0.328,0.264-0.592,0.59-0.592H60.83c0.326,0,0.59,0.264,0.59,0.592V42.833z"/>
			</g>
			<g>
				<path fill="#772016" d="M40.82,50.099c0,0.326-0.264,0.592-0.59,0.592h-2.453c-0.326,0-0.59-0.267-0.59-0.592v-2.451
					c0-0.326,0.264-0.592,0.59-0.592h2.453c0.326,0,0.59,0.266,0.59,0.592V50.099z"/>
			</g>
			<g>
				<path fill="#772016" d="M61.42,50.099c0,0.326-0.264,0.592-0.59,0.592H44.564c-0.326,0-0.59-0.267-0.59-0.592v-2.451
					c0-0.326,0.264-0.592,0.59-0.592H60.83c0.326,0,0.59,0.266,0.59,0.592V50.099z"/>
			</g>
		</g>
	</g>
	<g>
		<g>
			<path fill="#772016" d="M58.582,76.23c-5.77,0-10.463-4.693-10.463-10.463c0-5.769,4.693-10.461,10.463-10.461
				c5.768,0,10.461,4.692,10.461,10.461C69.043,71.537,64.35,76.23,58.582,76.23z M58.582,58.088c-4.234,0-7.682,3.445-7.682,7.68
				c0,4.238,3.447,7.685,7.682,7.685s7.68-3.445,7.68-7.685C66.262,61.533,62.816,58.088,58.582,58.088z"/>
		</g>
		<g>
			<path fill="#772016" d="M53.98,67.242c1.016,0,0.467,1.385,2.039,1.385c0.854,0,1.309-0.518,1.309-1.217
				c0-0.539-0.238-0.934-1.023-1.014c-0.32-0.035-0.945-0.09-0.945-0.607c0-0.588,0.343-0.709,0.99-0.744
				c0.569-0.033,0.865-0.359,0.865-0.879c0-0.676-0.535-0.99-1.139-0.99c-1.378,0-1.061,1.283-1.959,1.283
				c-0.387,0-0.764-0.168-0.764-0.676c0-1.373,1.65-1.959,2.756-1.959c1.971,0,2.699,1.092,2.699,2.186
				c0,0.719-0.328,1.238-0.968,1.576c0.854,0.234,1.22,0.912,1.22,1.756c0,1.777-1.392,2.635-3.076,2.635
				c-2.141,0-2.812-1.313-2.812-1.949C53.172,67.568,53.516,67.242,53.98,67.242z"/>
			<path fill="#772016" d="M61.518,64.707h-1.469c-0.377,0-0.58-0.137-0.58-0.596c0-0.416,0.229-0.529,0.819-0.643l0.423-0.091
				c1.264-0.271,0.91-1.556,1.877-1.556c0.365,0,0.66,0.158,0.66,0.769v6.396c0,0.586-0.229,0.99-0.864,0.99
				c-0.638,0-0.866-0.404-0.866-0.99V64.707z"/>
		</g>
	</g>
</g>
</svg>
