<?xml version="1.0" encoding="utf-8"?>
<!-- Generator: Adobe Illustrator 16.0.0, SVG Export Plug-In . SVG Version: 6.00 Build 0)  -->
<!DOCTYPE svg PUBLIC "-//W3C//DTD SVG 1.1//EN" "http://www.w3.org/Graphics/SVG/1.1/DTD/svg11.dtd">
<svg version="1.1" id="Layer_1" xmlns="http://www.w3.org/2000/svg" xmlns:xlink="http://www.w3.org/1999/xlink" x="0px" y="0px"
	 width="100px" height="100px" viewBox="0 0 100 100" enable-background="new 0 0 100 100" xml:space="preserve">
<g>
	<g>
		<g>
			<path fill="#772016" d="M58.584,76.262c-5.77,0-10.463-4.693-10.463-10.461c0-5.77,4.693-10.463,10.463-10.463
				s10.461,4.693,10.461,10.463C69.045,71.568,64.354,76.262,58.584,76.262z M58.584,58.119c-4.234,0-7.682,3.443-7.682,7.682
				c0,4.234,3.445,7.68,7.682,7.68c4.234,0,7.68-3.444,7.68-7.68C66.264,61.562,62.818,58.119,58.584,58.119z"/>
		</g>
		<g>
			<path fill="#772016" d="M60.986,62c0.445,0,0.787,0.182,0.787,0.812c0,0.899-1.881,1.227-3.041,6.305
				c-0.148,0.664-0.309,0.891-0.844,0.891c-0.658,0-0.83-0.371-0.83-0.855c0-1.114,1.514-4.403,2.961-5.731h-3.679
				c-0.411,0-0.729-0.202-0.729-0.709c0-0.508,0.318-0.711,0.752-0.711L60.986,62L60.986,62z"/>
		</g>
	</g>
	<g>
		<g>
			<path fill="#772016" d="M43.975,69.664h-8.633c-2.439,0-4.426-1.984-4.426-4.426V28.164c0-2.441,1.986-4.426,4.426-4.426h29.316
				c2.439,0,4.426,1.984,4.426,4.426v23.893c0,0.816-0.66,1.479-1.477,1.479c-0.814,0-1.476-0.662-1.476-1.479V28.164
				c0-0.812-0.661-1.475-1.475-1.475H35.342c-0.814,0-1.475,0.662-1.475,1.475v37.074c0,0.814,0.66,1.476,1.475,1.476h8.633
				c0.814,0,1.475,0.66,1.475,1.478C45.449,69.004,44.789,69.664,43.975,69.664z"/>
		</g>
		<g>
			<path fill="#772016" d="M40.82,36.359c0,0.324-0.264,0.59-0.59,0.59h-2.453c-0.326,0-0.59-0.266-0.59-0.59v-2.453
				c0-0.326,0.264-0.59,0.59-0.59h2.453c0.326,0,0.59,0.264,0.59,0.59V36.359z"/>
		</g>
		<g>
			<path fill="#772016" d="M61.42,36.359c0,0.324-0.264,0.59-0.59,0.59H44.564c-0.326,0-0.59-0.266-0.59-0.59v-2.453
				c0-0.326,0.264-0.59,0.59-0.59H60.83c0.326,0,0.59,0.264,0.59,0.59V36.359z"/>
		</g>
		<g>
			<path fill="#772016" d="M40.82,42.802c0,0.326-0.264,0.59-0.59,0.59h-2.453c-0.326,0-0.59-0.264-0.59-0.59v-2.451
				c0-0.328,0.264-0.592,0.59-0.592h2.453c0.326,0,0.59,0.264,0.59,0.592V42.802z"/>
		</g>
		<g>
			<path fill="#772016" d="M61.42,42.802c0,0.326-0.264,0.59-0.59,0.59H44.564c-0.326,0-0.59-0.264-0.59-0.59v-2.451
				c0-0.328,0.264-0.592,0.59-0.592H60.83c0.326,0,0.59,0.264,0.59,0.592V42.802z"/>
		</g>
		<g>
			<path fill="#772016" d="M40.82,50.068c0,0.326-0.264,0.592-0.59,0.592h-2.453c-0.326,0-0.59-0.266-0.59-0.592v-2.451
				c0-0.326,0.264-0.592,0.59-0.592h2.453c0.326,0,0.59,0.266,0.59,0.592V50.068z"/>
		</g>
		<g>
			<path fill="#772016" d="M61.42,50.068c0,0.326-0.264,0.592-0.59,0.592H44.564c-0.326,0-0.59-0.266-0.59-0.592v-2.451
				c0-0.326,0.264-0.592,0.59-0.592H60.83c0.326,0,0.59,0.266,0.59,0.592V50.068z"/>
		</g>
	</g>
</g>
</svg>
